<svg xmlns="http://www.w3.org/2000/svg" width="24" height="24" viewBox="0 0 24 24" fill="none" stroke="currentColor" stroke-width="2" stroke-linecap="round" stroke-linejoin="round">
  <path stroke="none" d="M0 0h24v24H0z" fill="none" />
  <path d="M6 9l6 0" />
  <path d="M4 5l4 0" />
  <path d="M6 5v11a1 1 0 0 0 1 1h5" />
  <path d="M12 7m0 2a2 2 0 0 1 2 -2h4a2 2 0 0 1 2 2v0a2 2 0 0 1 -2 2h-4a2 2 0 0 1 -2 -2z" />
  <path d="M12 15m0 2a2 2 0 0 1 2 -2h4a2 2 0 0 1 2 2v0a2 2 0 0 1 -2 2h-4a2 2 0 0 1 -2 -2z" />
</svg>
